<?xml version="1.0" encoding="utf-8"?>
<!-- Generator: Adobe Illustrator 25.3.1, SVG Export Plug-In . SVG Version: 6.00 Build 0)  -->
<svg version="1.1" id="Layer_1" xmlns="http://www.w3.org/2000/svg" xmlns:xlink="http://www.w3.org/1999/xlink" x="0px" y="0px"
	 viewBox="0 0 653 46.2" style="enable-background:new 0 0 653 46.2;" xml:space="preserve">
<style type="text/css">
	.st0{opacity:0.5;fill:#8B5BA4;}
	.st1{font-family:'Avenir-Book';}
	.st2{font-size:36px;}
	.st3{fill:none;stroke:#000000;stroke-miterlimit:10;}
	.st4{fill:none;stroke:#BCBEC0;stroke-miterlimit:10;}
	.st5{fill:url(#SVGID_1_);}
	.st6{fill:none;stroke:#F12131;stroke-miterlimit:10;}
	.st7{fill:#F12131;}
	.st8{fill:none;stroke:#12AF51;stroke-miterlimit:10;}
	.st9{fill:#22B551;}
</style>
<g>
	<path class="st0" d="M288,26c-7.2,0-14.3,0-21.5,0c-7.2,0-14.3,0-21.5,0c2.8,1.4,10.5,4.8,21.5,4.8C277.5,30.8,285.3,27.3,288,26z"
		/>
	<path class="st0" d="M320.8,26c-7.2,0-14.3,0-21.5,0s-14.3,0-21.5,0c2.8,2.2,10.5,7.7,21.5,7.7C310.3,33.7,318,28.2,320.8,26z"/>
	<path class="st0" d="M304.4,26c-7.2,0-14.3,0-21.5,0s-14.3,0-21.5,0c2.8,1.4,10.5,4.8,21.5,4.8C293.9,30.8,301.6,27.3,304.4,26z"/>
	<path class="st0" d="M337.1,26c-7.2,0-14.3,0-21.5,0c-7.2,0-14.3,0-21.5,0c2.8,0.9,10.5,3,21.5,3C326.6,29,334.4,26.8,337.1,26z"/>
	<path class="st0" d="M263.5,26c-7.2,0-14.3,0-21.5,0c-7.2,0-14.3,0-21.5,0c2.8,1.4,10.5,4.8,21.5,4.8C253,30.8,260.7,27.3,263.5,26
		z"/>
	<path class="st0" d="M296.2,26c-7.2,0-14.3,0-21.5,0c-7.2,0-14.3,0-21.5,0c2.8,1.9,10.5,6.7,21.5,6.7
		C285.7,32.7,293.5,27.9,296.2,26z"/>
	<path class="st0" d="M279.9,26c-7.2,0-14.3,0-21.5,0c-7.2,0-14.3,0-21.5,0c2.8,1.4,10.5,4.8,21.5,4.8
		C269.4,30.8,277.1,27.3,279.9,26z"/>
	<path class="st0" d="M274.5,26.4c-7.2,0-14.3,0-21.5,0s-14.3,0-21.5,0c2.8,2.5,10.5,8.8,21.5,8.8C264,35.2,271.7,28.9,274.5,26.4z"
		/>
	<path class="st0" d="M285.6,26c-7.2,0-14.3,0-21.5,0c-7.2,0-14.3,0-21.5,0c2.8,2.5,10.5,8.8,21.5,8.8
		C275.1,34.7,282.9,28.5,285.6,26z"/>
	<path class="st0" d="M291.9,26.4c-7.2,0-14.3,0-21.5,0s-14.3,0-21.5,0c2.8,3.4,10.5,11.9,21.5,11.9
		C281.4,38.3,289.1,29.8,291.9,26.4z"/>
	<path class="st0" d="M279.3,26c-7.2,0-14.3,0-21.5,0s-14.3,0-21.5,0c2.8,1.4,10.5,4.8,21.5,4.8C268.8,30.8,276.6,27.3,279.3,26z"/>
	<path class="st0" d="M294.4,26c-7.2,0-14.3,0-21.5,0c-7.2,0-14.3,0-21.5,0c2.8,2.4,10.5,8.4,21.5,8.4
		C283.9,34.3,291.7,28.3,294.4,26z"/>
	<path class="st0" d="M271.1,26c-7.2,0-14.3,0-21.5,0s-14.3,0-21.5,0c2.8,1.7,10.5,6,21.5,6S268.4,27.7,271.1,26z"/>
	<path class="st0" d="M342.9,26c-7.2,0-14.3,0-21.5,0s-14.3,0-21.5,0c2.8,1.4,10.5,4.8,21.5,4.8C332.4,30.8,340.1,27.3,342.9,26z"/>
	<path class="st0" d="M345.3,26c-7.2,0-14.3,0-21.5,0s-14.3,0-21.5,0c2.8,1.9,10.5,6.7,21.5,6.7C334.8,32.7,342.6,27.9,345.3,26z"/>
	<path class="st0" d="M334.7,26c-7.2,0-14.3,0-21.5,0s-14.3,0-21.5,0c2.8,1.4,10.5,4.8,21.5,4.8C324.2,30.8,331.9,27.3,334.7,26z"/>
	<path class="st0" d="M334.1,26c-7.2,0-14.3,0-21.5,0c-7.2,0-14.3,0-21.5,0c2.8,1.4,10.5,4.8,21.5,4.8
		C323.6,30.8,331.4,27.3,334.1,26z"/>
	<path class="st0" d="M262.8,26c-7.2,0-14.3,0-21.5,0c-7.2,0-14.3,0-21.5,0c2.8,2.4,10.5,8.4,21.5,8.4C252.3,34.3,260,28.3,262.8,26
		z"/>
	<path class="st0" d="M336.9,26c-11.7,0-23.3,0-35,0s-23.3,0-35,0c4.5,1.7,17.1,6,35,6C319.8,32,332.4,27.7,336.9,26z"/>
	<path class="st0" d="M342.2,27.1c-7.2,0-14.3,0-21.5,0c-7.2,0-14.3,0-21.5,0c2.8,3.4,10.5,11.9,21.5,11.9
		C331.7,38.9,339.5,30.4,342.2,27.1z"/>
</g>
<g>
	<path class="st0" d="M286,25c-7.2,0-14.3,0-21.5,0c-7.2,0-14.3,0-21.5,0c2.8-1.4,10.5-4.8,21.5-4.8C275.5,20.2,283.2,23.6,286,25z"
		/>
	<path class="st0" d="M318.7,25c-7.2,0-14.3,0-21.5,0s-14.3,0-21.5,0c2.8-2.2,10.5-7.7,21.5-7.7S316,22.8,318.7,25z"/>
	<path class="st0" d="M302.4,25c-7.2,0-14.3,0-21.5,0c-7.2,0-14.3,0-21.5,0c2.8-1.4,10.5-4.8,21.5-4.8
		C291.9,20.2,299.6,23.6,302.4,25z"/>
	<path class="st0" d="M335.1,25c-7.2,0-14.3,0-21.5,0c-7.2,0-14.3,0-21.5,0c2.8-0.9,10.5-3,21.5-3C324.6,22,332.3,24.2,335.1,25z"/>
	<path class="st0" d="M261.5,25c-7.2,0-14.3,0-21.5,0c-7.2,0-14.3,0-21.5,0c2.8-1.4,10.5-4.8,21.5-4.8C251,20.2,258.7,23.6,261.5,25
		z"/>
	<path class="st0" d="M294.2,25c-7.2,0-14.3,0-21.5,0c-7.2,0-14.3,0-21.5,0c2.8-1.9,10.5-6.7,21.5-6.7
		C283.7,18.3,291.4,23.1,294.2,25z"/>
	<path class="st0" d="M277.8,25c-7.2,0-14.3,0-21.5,0c-7.2,0-14.3,0-21.5,0c2.8-1.4,10.5-4.8,21.5-4.8
		C267.3,20.2,275.1,23.6,277.8,25z"/>
	<path class="st0" d="M310.5,25c-7.2,0-14.3,0-21.5,0s-14.3,0-21.5,0c2.8-2.5,10.5-8.8,21.5-8.8C300,16.2,307.8,22.5,310.5,25z"/>
	<path class="st0" d="M277.3,25c-7.2,0-14.3,0-21.5,0s-14.3,0-21.5,0c2.8-1.4,10.5-4.8,21.5-4.8C266.8,20.2,274.5,23.6,277.3,25z"/>
	<path class="st0" d="M260.2,25c-7.2,0-14.3,0-21.5,0c-7.2,0-14.3,0-21.5,0c2.8-2.4,10.5-8.4,21.5-8.4S257.4,22.6,260.2,25z"/>
	<path class="st0" d="M269.1,25c-7.2,0-14.3,0-21.5,0c-7.2,0-14.3,0-21.5,0c2.8-1.7,10.5-6,21.5-6S266.3,23.3,269.1,25z"/>
	<path class="st0" d="M340.8,25c-7.2,0-14.3,0-21.5,0s-14.3,0-21.5,0c2.8-1.4,10.5-4.8,21.5-4.8C330.3,20.2,338.1,23.6,340.8,25z"/>
	<path class="st0" d="M349,25c-7.2,0-14.3,0-21.5,0s-14.3,0-21.5,0c2.8-1.9,10.5-6.7,21.5-6.7S346.2,23.1,349,25z"/>
	<path class="st0" d="M332.6,25c-7.2,0-14.3,0-21.5,0c-7.2,0-14.3,0-21.5,0c2.8-1.4,10.5-4.8,21.5-4.8
		C322.1,20.2,329.9,23.6,332.6,25z"/>
	<path class="st0" d="M332.1,25c-7.2,0-14.3,0-21.5,0s-14.3,0-21.5,0c2.8-1.4,10.5-4.8,21.5-4.8C321.6,20.2,329.3,23.6,332.1,25z"/>
	<path class="st0" d="M315,25c-7.2,0-14.3,0-21.5,0s-14.3,0-21.5,0c2.8-2.4,10.5-8.4,21.5-8.4C304.5,16.7,312.3,22.6,315,25z"/>
	<path class="st0" d="M323.9,25c-7.2,0-14.3,0-21.5,0s-14.3,0-21.5,0c2.8-1.7,10.5-6,21.5-6C313.4,19,321.2,23.3,323.9,25z"/>
</g>
<text transform="matrix(1 0 0 1 -0.1144 34.8353)" class="st1 st2">perturb-tools</text>
<g>
	<g>
		<g>
			<g>
				<polygon points="349.5,10.8 364.2,10.8 364.2,14.3 371.1,10.3 364.2,6.4 364.2,9.9 349.5,9.9 				"/>
			</g>
		</g>
	</g>
	<line class="st3" x1="349.9" y1="9.8" x2="349.9" y2="25.4"/>
</g>
<path class="st3" d="M356.5-3.6"/>
<line class="st4" x1="216" y1="25.5" x2="424.9" y2="25.5"/>
<linearGradient id="SVGID_1_" gradientUnits="userSpaceOnUse" x1="391.1333" y1="-39.092" x2="580.6551" y2="70.3285" gradientTransform="matrix(1 0 0 -1 0 48)">
	<stop  offset="0.1092" style="stop-color:#FCB13A"/>
	<stop  offset="0.4232" style="stop-color:#FDD697"/>
	<stop  offset="0.6963" style="stop-color:#FFF3E2"/>
	<stop  offset="0.8218" style="stop-color:#FFFFFF"/>
</linearGradient>
<path class="st5" d="M634.2,33H361.5c-2.7,0-4.8-2.2-4.8-4.8v-5.4c0-2.7,2.2-4.8,4.8-4.8h272.7c2.7,0,4.8,2.2,4.8,4.8v5.4
	C639,30.8,636.8,33,634.2,33z"/>
<path class="st3" d="M285.7-89.7"/>
<g>
	<line class="st6" x1="344.1" y1="9.4" x2="344.1" y2="17"/>
	<polygon class="st7" points="344.1,18.5 342.2,14.7 346,14.7 	"/>
	<line class="st8" x1="340.6" y1="12.7" x2="340.6" y2="5.1"/>
	<polygon class="st9" points="340.6,3.6 338.7,7.4 342.5,7.4 	"/>
</g>
</svg>
