<?xml version="1.0" encoding="utf-8"?>
<!-- Generator: Adobe Illustrator 25.3.1, SVG Export Plug-In . SVG Version: 6.00 Build 0)  -->
<svg version="1.1" id="Layer_1" xmlns="http://www.w3.org/2000/svg" xmlns:xlink="http://www.w3.org/1999/xlink" x="0px" y="0px"
	 viewBox="0 0 653 46.23" style="enable-background:new 0 0 653 46.23;" xml:space="preserve">
<style type="text/css">
	.st0{font-family:'Avenir-Book';}
	.st1{font-size:36px;}
	.st2{fill:none;stroke:#000000;stroke-miterlimit:10;}
	.st3{fill:#BCBEC0;stroke:#BCBEC0;stroke-width:2;stroke-miterlimit:10;}
	.st4{fill:#8B5BA4;}
	.st5{fill:url(#SVGID_1_);}
	.st6{fill:#22B551;stroke:#12AF51;stroke-miterlimit:10;}
	.st7{fill:#22B551;}
	.st8{fill:#F12131;stroke:#F12131;stroke-miterlimit:10;}
	.st9{fill:#F12131;}
</style>
<text transform="matrix(1 0 0 1 -0.1144 34.8353)" class="st0 st1">perturb-tools</text>
<g>
	<g>
		<g>
			<g>
				<g>
					<polygon points="347.54,9.32 364.57,9.33 364.58,13.38 372.55,8.77 364.57,4.17 364.57,8.22 347.55,8.21 					"/>
				</g>
			</g>
		</g>
		<line class="st2" x1="348.01" y1="8.18" x2="348.01" y2="26.37"/>
	</g>
	<path class="st2" d="M356.48-3.57"/>
	<line class="st3" x1="215.97" y1="25.49" x2="424.86" y2="25.49"/>
	<path class="st4" d="M278.77,32.99h-0.36c-2.66,0-4.82-2.16-4.82-4.82V22.8c0-2.66,2.16-4.82,4.82-4.82h0.36
		c2.66,0,4.82,2.16,4.82,4.82v5.36C283.59,30.83,281.43,32.99,278.77,32.99z"/>
	<path class="st4" d="M235.63,32.99h-0.36c-2.66,0-4.82-2.16-4.82-4.82V22.8c0-2.66,2.16-4.82,4.82-4.82h0.36
		c2.66,0,4.82,2.16,4.82,4.82v5.36C240.45,30.83,238.29,32.99,235.63,32.99z"/>
	<path class="st4" d="M333.23,32.99h-0.36c-2.66,0-4.82-2.16-4.82-4.82V22.8c0-2.66,2.16-4.82,4.82-4.82h0.36
		c2.66,0,4.82,2.16,4.82,4.82v5.36C338.05,30.83,335.89,32.99,333.23,32.99z"/>
	<linearGradient id="SVGID_1_" gradientUnits="userSpaceOnUse" x1="391.1337" y1="87.0927" x2="580.6555" y2="-22.3278">
		<stop  offset="0.1092" style="stop-color:#FCB13A"/>
		<stop  offset="0.4232" style="stop-color:#FDD697"/>
		<stop  offset="0.6963" style="stop-color:#FFF3E2"/>
		<stop  offset="0.8218" style="stop-color:#FFFFFF"/>
	</linearGradient>
	<path class="st5" d="M634.17,32.99H361.51c-2.66,0-4.82-2.16-4.82-4.82V22.8c0-2.66,2.16-4.82,4.82-4.82h272.66
		c2.66,0,4.82,2.16,4.82,4.82v5.36C638.99,30.83,636.83,32.99,634.17,32.99z"/>
	<g>
		<line class="st6" x1="286.75" y1="20.37" x2="286.75" y2="10.37"/>
		<polygon class="st7" points="286.75,8.37 284.25,13.37 289.25,13.37 		"/>
	</g>
	<g>
		<line class="st8" x1="242.95" y1="30.87" x2="242.95" y2="40.87"/>
		<polygon class="st9" points="242.95,42.87 240.45,37.87 245.45,37.87 		"/>
	</g>
	<g>
		<line class="st8" x1="340.55" y1="30.87" x2="340.55" y2="40.87"/>
		<polygon class="st9" points="340.55,42.87 338.05,37.87 343.05,37.87 		"/>
	</g>
</g>
</svg>
