<?xml version="1.0" encoding="utf-8"?>
<!-- Generator: Adobe Illustrator 25.3.1, SVG Export Plug-In . SVG Version: 6.00 Build 0)  -->
<svg version="1.1" id="Layer_1" xmlns="http://www.w3.org/2000/svg" xmlns:xlink="http://www.w3.org/1999/xlink" x="0px" y="0px"
	 viewBox="0 0 653 46.2" style="enable-background:new 0 0 653 46.2;" xml:space="preserve">
<style type="text/css">
	.st0{opacity:0.5;fill:#8B5BA4;}
	.st1{font-family:'Avenir-Book';}
	.st2{font-size:36px;}
	.st3{fill:none;stroke:#000000;stroke-miterlimit:10;}
	.st4{fill:none;stroke:#BCBEC0;stroke-miterlimit:10;}
	.st5{fill:url(#SVGID_1_);}
	.st6{fill:none;stroke:#F12131;stroke-miterlimit:10;}
	.st7{fill:#F12131;}
	.st8{fill:none;stroke:#12AF51;stroke-miterlimit:10;}
	.st9{fill:#22B551;}
</style>
<g>
	<g>
		<path class="st0" d="M287.6,25.4c-5.9,0-11.8,0-17.8,0s-11.8,0-17.8,0c2.3,1.4,8.7,4.8,17.8,4.8C278.9,30.2,285.3,26.8,287.6,25.4
			z"/>
		<path class="st0" d="M314.7,25.4c-5.9,0-11.8,0-17.8,0s-11.8,0-17.8,0c2.3,2.2,8.7,7.7,17.8,7.7C306,33.1,312.4,27.6,314.7,25.4z"
			/>
		<path class="st0" d="M301.2,25.4c-5.9,0-11.8,0-17.8,0s-11.8,0-17.8,0c2.3,1.4,8.7,4.8,17.8,4.8C292.5,30.2,298.9,26.8,301.2,25.4
			z"/>
		<path class="st0" d="M328.2,25.4c-5.9,0-11.8,0-17.8,0c-5.9,0-11.8,0-17.8,0c2.3,0.9,8.7,3,17.8,3
			C319.5,28.4,325.9,26.2,328.2,25.4z"/>
		<path class="st0" d="M267.3,25.4c-5.9,0-11.8,0-17.8,0s-11.8,0-17.8,0c2.3,1.4,8.7,4.8,17.8,4.8C258.6,30.2,265,26.8,267.3,25.4z"
			/>
		<path class="st0" d="M294.4,25.4c-5.9,0-11.8,0-17.8,0s-11.8,0-17.8,0c2.3,1.9,8.7,6.7,17.8,6.7C285.7,32.1,292.1,27.3,294.4,25.4
			z"/>
		<path class="st0" d="M280.8,25.4c-5.9,0-11.8,0-17.8,0s-11.8,0-17.8,0c2.3,1.4,8.7,4.8,17.8,4.8C272.2,30.2,278.6,26.8,280.8,25.4
			z"/>
		<path class="st0" d="M276.4,25.8c-5.9,0-11.8,0-17.8,0c-5.9,0-11.8,0-17.8,0c2.3,2.5,8.7,8.8,17.8,8.8
			C267.7,34.6,274.1,28.3,276.4,25.8z"/>
		<path class="st0" d="M285.6,25.4c-5.9,0-11.8,0-17.8,0s-11.8,0-17.8,0c2.3,2.5,8.7,8.8,17.8,8.8C276.9,34.2,283.3,27.9,285.6,25.4
			z"/>
		<path class="st0" d="M290.8,25.8c-5.9,0-11.8,0-17.8,0s-11.8,0-17.8,0c2.3,3.4,8.7,11.9,17.8,11.9
			C282.1,37.7,288.5,29.2,290.8,25.8z"/>
		<path class="st0" d="M280.4,25.4c-5.9,0-11.8,0-17.8,0s-11.8,0-17.8,0c2.3,1.4,8.7,4.8,17.8,4.8C271.7,30.2,278.1,26.8,280.4,25.4
			z"/>
		<path class="st0" d="M292.9,25.4c-5.9,0-11.8,0-17.8,0s-11.8,0-17.8,0c2.3,2.4,8.7,8.4,17.8,8.4C284.2,33.7,290.6,27.8,292.9,25.4
			z"/>
		<path class="st0" d="M273.6,25.4c-5.9,0-11.8,0-17.8,0s-11.8,0-17.8,0c2.3,1.7,8.7,6,17.8,6C264.9,31.4,271.3,27.1,273.6,25.4z"/>
		<path class="st0" d="M333,25.4c-5.9,0-11.8,0-17.8,0s-11.8,0-17.8,0c2.3,1.4,8.7,4.8,17.8,4.8C324.3,30.2,330.7,26.8,333,25.4z"/>
		<path class="st0" d="M335,25.4c-5.9,0-11.8,0-17.8,0c-5.9,0-11.8,0-17.8,0c2.3,1.9,8.7,6.7,17.8,6.7
			C326.3,32.1,332.7,27.3,335,25.4z"/>
		<path class="st0" d="M326.2,25.4c-5.9,0-11.8,0-17.8,0s-11.8,0-17.8,0c2.3,1.4,8.7,4.8,17.8,4.8C317.5,30.2,323.9,26.8,326.2,25.4
			z"/>
		<path class="st0" d="M325.8,25.4c-5.9,0-11.8,0-17.8,0s-11.8,0-17.8,0c2.3,1.4,8.7,4.8,17.8,4.8C317.1,30.2,323.5,26.8,325.8,25.4
			z"/>
		<path class="st0" d="M266.7,25.4c-5.9,0-11.8,0-17.8,0s-11.8,0-17.8,0c2.3,2.4,8.7,8.4,17.8,8.4C258,33.7,264.4,27.8,266.7,25.4z"
			/>
		<path class="st0" d="M328,25.4c-9.6,0-19.3,0-28.9,0s-19.3,0-28.9,0c3.7,1.7,14.2,6,28.9,6C313.9,31.4,324.3,27.1,328,25.4z"/>
		<path class="st0" d="M307.4,25.6c-5.9,0-11.8,0-17.8,0s-11.8,0-17.8,0c2.3,3.4,8.7,11.9,17.8,11.9C298.7,37.5,305.1,29,307.4,25.6
			z"/>
	</g>
	<g>
		<path class="st0" d="M288,25.1c-5.9,0-11.8,0-17.8,0s-11.8,0-17.8,0c2.3-1.4,8.7-4.8,17.8-4.8C279.3,20.3,285.7,23.7,288,25.1z"/>
		<path class="st0" d="M315.1,25.1c-5.9,0-11.8,0-17.8,0s-11.8,0-17.8,0c2.3-2.2,8.7-7.7,17.8-7.7S312.8,22.9,315.1,25.1z"/>
		<path class="st0" d="M301.6,25.1c-5.9,0-11.8,0-17.8,0s-11.8,0-17.8,0c2.3-1.4,8.7-4.8,17.8-4.8C292.9,20.3,299.3,23.7,301.6,25.1
			z"/>
		<path class="st0" d="M328.6,25.1c-5.9,0-11.8,0-17.8,0s-11.8,0-17.8,0c2.3-0.9,8.7-3,17.8-3C319.9,22.1,326.3,24.3,328.6,25.1z"/>
		<path class="st0" d="M267.7,25.1c-5.9,0-11.8,0-17.8,0c-5.9,0-11.8,0-17.8,0c2.3-1.4,8.7-4.8,17.8-4.8
			C259,20.3,265.4,23.7,267.7,25.1z"/>
		<path class="st0" d="M294.8,25.1c-5.9,0-11.8,0-17.8,0s-11.8,0-17.8,0c2.3-1.9,8.7-6.7,17.8-6.7S292.5,23.2,294.8,25.1z"/>
		<path class="st0" d="M281.3,25.1c-5.9,0-11.8,0-17.8,0s-11.8,0-17.8,0c2.3-1.4,8.7-4.8,17.8-4.8C272.6,20.3,279,23.7,281.3,25.1z"
			/>
		<path class="st0" d="M308.3,25.1c-5.9,0-11.8,0-17.8,0s-11.8,0-17.8,0c2.3-2.5,8.7-8.8,17.8-8.8S306,22.6,308.3,25.1z"/>
		<path class="st0" d="M280.8,25.1c-5.9,0-11.8,0-17.8,0s-11.8,0-17.8,0c2.3-1.4,8.7-4.8,17.8-4.8C272.1,20.3,278.5,23.7,280.8,25.1
			z"/>
		<path class="st0" d="M266.7,25.1c-5.9,0-11.8,0-17.8,0s-11.8,0-17.8,0c2.3-2.4,8.7-8.4,17.8-8.4S264.4,22.7,266.7,25.1z"/>
		<path class="st0" d="M274,25.1c-5.9,0-11.8,0-17.8,0s-11.8,0-17.8,0c2.3-1.7,8.7-6,17.8-6C265.4,19.1,271.8,23.4,274,25.1z"/>
		<path class="st0" d="M333.4,25.1c-5.9,0-11.8,0-17.8,0s-11.8,0-17.8,0c2.3-1.4,8.7-4.8,17.8-4.8C324.7,20.3,331.1,23.7,333.4,25.1
			z"/>
		<path class="st0" d="M340.1,25.1c-5.9,0-11.8,0-17.8,0s-11.8,0-17.8,0c2.3-1.9,8.7-6.7,17.8-6.7C331.5,18.4,337.9,23.2,340.1,25.1
			z"/>
		<path class="st0" d="M326.6,25.1c-5.9,0-11.8,0-17.8,0c-5.9,0-11.8,0-17.8,0c2.3-1.4,8.7-4.8,17.8-4.8
			C317.9,20.3,324.3,23.7,326.6,25.1z"/>
		<path class="st0" d="M326.2,25.1c-5.9,0-11.8,0-17.8,0c-5.9,0-11.8,0-17.8,0c2.3-1.4,8.7-4.8,17.8-4.8
			C317.5,20.3,323.9,23.7,326.2,25.1z"/>
		<path class="st0" d="M312,25.1c-5.9,0-11.8,0-17.8,0c-5.9,0-11.8,0-17.8,0c2.3-2.4,8.7-8.4,17.8-8.4
			C303.3,16.8,309.7,22.7,312,25.1z"/>
		<path class="st0" d="M319.4,25.1c-5.9,0-11.8,0-17.8,0c-5.9,0-11.8,0-17.8,0c2.3-1.7,8.7-6,17.8-6
			C310.7,19.1,317.1,23.4,319.4,25.1z"/>
	</g>
</g>
<text transform="matrix(1 0 0 1 -0.1144 34.8353)" class="st1 st2">perturb-tools</text>
<g>
	<g>
		<g>
			<g>
				<polygon points="349.5,10.8 364.2,10.8 364.2,14.3 371.1,10.3 364.2,6.4 364.2,9.9 349.5,9.9 				"/>
			</g>
		</g>
	</g>
	<line class="st3" x1="349.9" y1="9.8" x2="349.9" y2="25.4"/>
</g>
<path class="st3" d="M356.5-3.6"/>
<line class="st4" x1="216" y1="25.5" x2="424.9" y2="25.5"/>
<linearGradient id="SVGID_1_" gradientUnits="userSpaceOnUse" x1="391.1333" y1="-39.092" x2="580.6551" y2="70.3285" gradientTransform="matrix(1 0 0 -1 0 48)">
	<stop  offset="0.1092" style="stop-color:#FCB13A"/>
	<stop  offset="0.4232" style="stop-color:#FDD697"/>
	<stop  offset="0.6963" style="stop-color:#FFF3E2"/>
	<stop  offset="0.8218" style="stop-color:#FFFFFF"/>
</linearGradient>
<path class="st5" d="M634.2,33H361.5c-2.7,0-4.8-2.2-4.8-4.8v-5.4c0-2.7,2.2-4.8,4.8-4.8h272.7c2.7,0,4.8,2.2,4.8,4.8v5.4
	C639,30.8,636.8,33,634.2,33z"/>
<path class="st3" d="M285.7-89.7"/>
<g>
	<line class="st6" x1="344.1" y1="9.4" x2="344.1" y2="17"/>
	<polygon class="st7" points="344.1,18.5 342.2,14.7 346,14.7 	"/>
	<line class="st8" x1="340.6" y1="12.7" x2="340.6" y2="5.1"/>
	<polygon class="st9" points="340.6,3.6 338.7,7.4 342.5,7.4 	"/>
</g>
</svg>
